<?xml version="1.0" standalone="no"?><!DOCTYPE svg PUBLIC "-//W3C//DTD SVG 1.1//EN" "http://www.w3.org/Graphics/SVG/1.1/DTD/svg11.dtd"><svg class="icon" width="128px" height="128.00px" viewBox="0 0 1024 1024" version="1.1" xmlns="http://www.w3.org/2000/svg"><path fill="#333333" d="M864 144H560c-8.8 0-16 7.2-16 16v304c0 8.8 7.2 16 16 16h304c8.8 0 16-7.2 16-16V160c0-8.8-7.2-16-16-16zM864 544H560c-8.8 0-16 7.2-16 16v304c0 8.8 7.2 16 16 16h304c8.8 0 16-7.2 16-16V560c0-8.8-7.2-16-16-16zM464 144H160c-8.8 0-16 7.2-16 16v304c0 8.8 7.2 16 16 16h304c8.8 0 16-7.2 16-16V160c0-8.8-7.2-16-16-16zM464 544H160c-8.8 0-16 7.2-16 16v304c0 8.8 7.2 16 16 16h304c8.8 0 16-7.2 16-16V560c0-8.8-7.2-16-16-16z" /></svg>