<?xml version="1.0" standalone="no"?><!DOCTYPE svg PUBLIC "-//W3C//DTD SVG 1.1//EN" "http://www.w3.org/Graphics/SVG/1.1/DTD/svg11.dtd"><svg class="icon" width="128px" height="128.00px" viewBox="0 0 1024 1024" version="1.1" xmlns="http://www.w3.org/2000/svg"><path fill="#333333" d="M888 792H200V168c0-4.4-3.6-8-8-8h-56c-4.4 0-8 3.6-8 8v688c0 4.4 3.6 8 8 8h752c4.4 0 8-3.6 8-8v-56c0-4.4-3.6-8-8-8zM272 728h536c4.4 0 8-3.6 8-8V284c0-7.2-8.7-10.7-13.7-5.7L592 488.6l-125.4-124c-3.1-3.1-8.2-3.1-11.3 0l-189 189.6c-1.5 1.5-2.3 3.5-2.3 5.6V720c0 4.4 3.6 8 8 8z" /></svg>