<?xml version="1.0" standalone="no"?><!DOCTYPE svg PUBLIC "-//W3C//DTD SVG 1.1//EN" "http://www.w3.org/Graphics/SVG/1.1/DTD/svg11.dtd"><svg class="icon" width="128px" height="128.00px" viewBox="0 0 1024 1024" version="1.1" xmlns="http://www.w3.org/2000/svg"><path fill="#333333" d="M899.818 451.656s83.608 4.238 83.608-44.962c0-64.242-111.302-122.192-111.302-122.192s17.418-37.016 28.308-57.694c10.89-20.68 41.528-101.386 44.262-119.818 3.452-23.16-1.802-30.448-1.802-30.448-7.564 49.664-88.376 192.6-94.796 197.516-78.862-36.974-187.198-47.272-187.198-47.272S554.852 3.484 455.12 3.484c-98.884 0-98.398 191.224-98.398 191.224s-27.948-54.22-63.014-54.22c-51.254 0-68.098 77.57-68.098 161.666-101.258 0-186.436 22.63-194.04 24.81-7.628 2.182-31.57 19.598-20.678 17.416 22.142-7.098 126.176-23.202 217.264-15.276 5 79.942 51.656 184.04 51.656 184.04s-100.05 144.948-100.05 248.494c0 27.248 11.866 77.062 83.714 77.062 60.154 0 127.722-36.188 140.456-43.54-11.104 15.87-19.324 46.042-19.324 59.876 0 11.356 6.738 43.54 53.118 43.54 59.602 0 126.174-45.682 126.174-45.682s62.844 104.48 116.576 152.364c14.492 12.904 28.328 15.256 28.328 15.256s-53.374-51.402-123.696-183.828c65.344-40.404 133.422-135.668 133.422-135.668s8.01 0.254 70.068 0.254c97.254 0 235.4-20.468 235.4-97.762 0-79.774-124.182-151.856-124.182-151.856z m10.87-48.012c0 28.202-26.846 27.862-26.846 27.862l-20.384 1.356s-38.73-20.382-62.188-29.896c0 0 36.36-56.064 44.856-71.7 6.462 3.728 64.562 40.088 64.562 72.38zM503.79 115.994c45.702 0 110.962 107.912 110.962 107.912s-101.83-9.132-185.63 40.13c2.288-77.698 28.456-148.042 74.668-148.042z m-181.114 87.444c14.514 0 28.752 17.67 34.6 32.652 0 9.896 5.15 67.696 5.15 67.696l-83.926-3.158c0-75.728 29.664-97.19 44.178-97.19z m-8.688 525.678c-45.85 0-55.322-25.552-55.322-48.562 0-52.1 41.57-124.948 41.57-124.948s46.55 97.996 127.892 139.354c-40.362 23.688-73.65 34.156-114.142 34.156z m148.91 102.614c-32.142 0-36.062-20.85-36.062-25.702 0-14.958 11.696-32.63 11.696-32.63s54.05-36.528 57.462-40.428l39.94 74.518s-40.894 24.24-73.036 24.24z m100.304-40.662c-19.558-34.22-33.986-69.962-33.986-69.962s80.388 5.212 123.568-39.452c-26.93 12.12-69.814 27.376-119.776 22.778 104.414-91.978 165.288-158.614 216.818-227.498-4.45-5.338-27.99-21.782-33.774-24.558-31.106 37.44-151.962 166.728-263.918 230.718-141.728-77.316-171.498-304.79-174.504-352.04l77.42 7.438s-29.092 51.594-29.092 89.562 4.536 39.962 4.536 39.962-0.976-66.17 39.896-117.276c31.106 165.734 63.564 250.634 88.862 301.252 12.882-5.34 36.89-15.996 36.89-15.996s-71.532-206.16-67.526-345.684c32.44-17.332 80.43-35.192 134.628-35.192 142.616 0 257.266 61.404 257.266 61.404l-44.876 62.654s-39.982-72.42-96.406-85.302c29.77 22.204 63.098 51.55 80.43 93.758-118.188-46.212-260.804-70.642-306.572-75.98-4.004 16.888-3.452 41-3.452 41s191.264 35.32 330.472 114.966c-0.976 174.188-190.692 307.928-216.904 323.458zM744.38 660.89s59.412-77.928 58.438-181.178c0 0 95.938 59.412 95.938 117.382 0 64.772-154.376 63.798-154.376 63.798z"  /></svg>