<?xml version="1.0" standalone="no"?><!DOCTYPE svg PUBLIC "-//W3C//DTD SVG 1.1//EN" "http://www.w3.org/Graphics/SVG/1.1/DTD/svg11.dtd"><svg class="icon" width="128px" height="122.61px" viewBox="0 0 1069 1024" version="1.1" xmlns="http://www.w3.org/2000/svg"><path fill="#333333" d="M868.929504 171.112272h-171.112272L775.35248 93.577023c13.368146-13.368146 13.368146-32.083551 0-45.451697s-32.083551-13.368146-45.451697 0l-131.007833 131.007833h-128.334203l-131.007833-131.007833c-10.694517-13.368146-26.736292-16.041775-42.778068-8.020887-2.673629 0-2.673629 2.673629-5.347259 5.347258-13.368146 13.368146-13.368146 32.083551 0 45.451697l80.208878 80.208878H200.522193c-93.577023 0-171.112272 77.535248-171.112271 171.112271v425.10705C29.409922 858.234987 106.94517 935.770235 200.522193 935.770235h26.736293c0 32.083551 26.736292 56.146214 56.146214 56.146214s56.146214-26.736292 56.146214-56.146214h395.697128c2.673629 32.083551 29.409922 56.146214 61.493472 53.472585 29.409922-2.673629 50.798956-24.062663 53.472585-53.472585h21.389034c93.577023 0 171.112272-77.535248 171.112272-171.112272V339.550914c-2.673629-93.577023-80.208877-168.438642-173.785901-168.438642z m-5.347259 660.386423H211.21671c-34.75718 0-61.493473-29.409922-64.167102-64.167102l-2.673629-433.127938c0-34.75718 29.409922-64.167102 64.167102-64.167101h652.365535c34.75718 0 61.493473 29.409922 64.167102 64.167101l2.673629 433.127938c-2.673629 37.430809-29.409922 64.167102-64.167102 64.167102z"  /><path fill="#333333" d="M422.43342 417.086162l16.041776 80.208877-213.89034 40.104439-16.041775-80.208877 213.890339-40.104439z m205.869452 80.208877l16.041776-80.208877 213.890339 40.104439-16.041776 80.208877-213.890339-40.104439z m42.778068 168.438642c0 2.673629 0 8.020888-2.673629 10.694517-13.368146 29.409922-42.778068 48.125326-77.535248 50.798956-21.389034 0-42.778068-10.694517-56.146214-26.736292-16.041775 16.041775-34.75718 26.736292-56.146215 26.736292-32.083551-2.673629-61.493473-21.389034-77.535248-50.798956 0-2.673629-2.673629-5.347258-2.673629-10.694517 0-10.694517 8.020888-18.715405 18.715405-21.389033h2.673629c8.020888 0 13.368146 2.673629 16.041776 10.694516 0 0 21.389034 29.409922 40.104438 29.409922 37.430809 0 37.430809-32.083551 58.819844-56.146214 24.062663 26.736292 24.062663 56.146214 58.819843 56.146214 24.062663 0 40.104439-29.409922 40.104439-29.409922 2.673629-5.347258 10.694517-10.694517 16.041775-10.694516 10.694517-2.673629 18.715405 5.347258 21.389034 16.041775v5.347258z"  /></svg>