<?xml version="1.0" standalone="no"?><!DOCTYPE svg PUBLIC "-//W3C//DTD SVG 1.1//EN" "http://www.w3.org/Graphics/SVG/1.1/DTD/svg11.dtd"><svg class="icon" width="128px" height="128.00px" viewBox="0 0 1024 1024" version="1.1" xmlns="http://www.w3.org/2000/svg"><path fill="#333333" d="M512 16C238.504 16 16 238.504 16 512s222.504 496 496 496 496-222.504 496-496S785.496 16 512 16z m327.94 228.732c59.006 72.092 94.738 163.914 95.67 263.91-13.968-2.954-154.036-31.364-295.004-13.636-11.504-28.082-22.362-52.786-37.234-83.228 156.642-63.954 227.636-154.964 236.568-167.046zM792.842 195.74c-7.62 10.854-71.394 96.572-222.042 153.038-69.424-127.552-146.37-232.336-158.08-248.016 134.352-32.386 275.932 2.54 380.122 94.978z m-460.96-66.5c11.17 15.318 86.876 120.232 157.074 245.018-198.174 52.626-372.72 51.868-391.668 51.618C124.76 294.41 213.356 185.146 331.882 129.24zM88.34 512.646c0-4.332 0.086-8.644 0.216-12.946 18.536 0.38 223.84 3.026 435.412-60.292 12.128 23.736 23.714 47.83 34.348 71.898-153.198 43.15-292.388 167.054-361.062 284.612C129.588 720.81 88.34 621.46 88.34 512.646z m163.614 334.226c44.254-90.466 164.356-207.244 335.158-265.512 59.48 154.566 84.078 284.106 90.378 321.276-136.224 58.026-300.03 42.106-425.536-55.764z m496.76 16.978c-4.342-25.772-26.892-149.794-82.304-302.066 132.76-21.252 249.4 13.536 263.894 18.11-18.884 117.882-86.546 219.688-181.59 283.956z"  /></svg>