<?xml version="1.0" standalone="no"?><!DOCTYPE svg PUBLIC "-//W3C//DTD SVG 1.1//EN" "http://www.w3.org/Graphics/SVG/1.1/DTD/svg11.dtd"><svg class="icon" width="128px" height="128.00px" viewBox="0 0 1024 1024" version="1.1" xmlns="http://www.w3.org/2000/svg"><path fill="#333333" d="M508 512m-112 0a112 112 0 1 0 224 0 112 112 0 1 0-224 0ZM942.2 486.2C847.4 286.5 704.1 186 512 186c-192.2 0-335.4 100.5-430.2 300.3-7.7 16.2-7.7 35.2 0 51.5C176.6 737.5 319.9 838 512 838c192.2 0 335.4-100.5 430.2-300.3 7.7-16.2 7.7-35 0-51.5zM508 688c-97.2 0-176-78.8-176-176s78.8-176 176-176 176 78.8 176 176-78.8 176-176 176z" /></svg>