<?xml version="1.0" standalone="no"?><!DOCTYPE svg PUBLIC "-//W3C//DTD SVG 1.1//EN" "http://www.w3.org/Graphics/SVG/1.1/DTD/svg11.dtd"><svg class="icon" width="128px" height="128.00px" viewBox="0 0 1024 1024" version="1.1" xmlns="http://www.w3.org/2000/svg"><path fill="#333333" d="M512 832c-19.2 0-38.4-10.666667-57.6-29.866667-8.533333-8.533333-8.533333-21.333333 0-27.733333 8.533333-8.533333 21.333333-8.533333 27.733333 0 12.8 12.8 21.333333 19.2 29.866667 19.2 8.533333 0 17.066667-6.4 29.866667-19.2 8.533333-8.533333 21.333333-8.533333 27.733333 0 8.533333 8.533333 8.533333 21.333333 0 27.733333-19.2 19.2-38.4 29.866667-57.6 29.866667zM0 524.8c0 51.2 4.266667 96 12.8 136.533333 8.533333 40.533333 21.333333 76.8 36.266667 104.533334 14.933333 29.866667 34.133333 57.6 57.6 78.933333 23.466667 23.466667 49.066667 40.533333 76.8 55.466667 27.733333 14.933333 59.733333 25.6 96 36.266666 36.266667 8.533333 72.533333 14.933333 108.8 19.2 38.4 2.133333 78.933333 4.266667 123.733333 4.266667 44.8 0 85.333333-2.133333 121.6-6.4 36.266667-4.266667 72.533333-10.666667 108.8-19.2 36.266667-8.533333 68.266667-21.333333 96-36.266667 27.733333-14.933333 53.333333-32 76.8-55.466666s42.666667-49.066667 59.733333-78.933334c14.933333-29.866667 27.733333-64 36.266667-104.533333 8.533333-40.533333 12.8-85.333333 12.8-136.533333 0-89.6-27.733333-166.4-83.2-230.4 2.133333-8.533333 6.4-19.2 8.533333-29.866667s4.266667-27.733333 6.4-46.933333c2.133333-21.333333 2.133333-42.666667-2.133333-70.4-4.266667-25.6-10.666667-53.333333-21.333333-81.066667h-8.533334c-4.266667-2.133333-14.933333 0-25.6 2.133333-12.8 2.133333-25.6 4.266667-42.666666 10.666667-17.066667 4.266667-36.266667 14.933333-61.866667 27.733333-25.6 12.8-53.333333 32-81.066667 53.333334-49.066667-17.066667-115.2-32-200.533333-32s-151.466667 14.933333-200.533333 29.866666c-27.733333-21.333333-55.466667-38.4-81.066667-51.2-25.6-14.933333-46.933333-23.466667-61.866667-29.866666-14.933333-4.266667-29.866667-8.533333-42.666666-10.666667H100.266667c-4.266667 0-6.4 2.133333-8.533334 2.133333-10.666667 27.733333-17.066667 55.466667-21.333333 81.066667-4.266667 25.6-4.266667 49.066667-2.133333 70.4 2.133333 19.2 4.266667 36.266667 6.4 46.933333 2.133333 10.666667 6.4 21.333333 8.533333 29.866667-55.466667 64-83.2 140.8-83.2 230.4zM136.533333 640c0-57.6 21.333333-110.933333 64-157.866667 12.8-14.933333 27.733333-25.6 44.8-32 17.066667-6.4 36.266667-10.666667 57.6-12.8h61.866667c19.2 2.133333 44.8 4.266667 72.533333 6.4 27.733333 2.133333 53.333333 4.266667 74.666667 4.266667s46.933333-2.133333 74.666667-4.266667c29.866667-2.133333 53.333333-4.266667 72.533333-6.4 19.2-2.133333 40.533333-2.133333 61.866667 0 21.333333 0 40.533333 4.266667 57.6 12.8 17.066667 6.4 32 19.2 44.8 32 42.666667 46.933333 64 100.266667 64 157.866667 0 34.133333-4.266667 64-10.666667 91.733333-6.4 25.6-17.066667 49.066667-27.733333 66.133334-10.666667 17.066667-25.6 34.133333-44.8 44.8-19.2 12.8-38.4 21.333333-57.6 27.733333-19.2 6.4-42.666667 12.8-70.4 14.933333-29.866667 4.266667-55.466667 6.4-76.8 6.4-23.466667 4.266667-53.333333 4.266667-87.466667 4.266667-34.133333 0-64 0-87.466667-2.133333-23.466667 0-49.066667-2.133333-76.8-6.4-29.866667-4.266667-53.333333-8.533333-70.4-14.933334-19.2-6.4-36.266667-17.066667-57.6-27.733333-19.2-12.8-34.133333-27.733333-44.8-44.8s-19.2-40.533333-27.733333-66.133333c-6.4-29.866667-10.666667-59.733333-10.666667-93.866667z m119.466667-32c0 53.333333 27.733333 96 64 96s64-42.666667 64-96-27.733333-96-64-96-64 42.666667-64 96z m384 0c0 53.333333 27.733333 96 64 96s64-42.666667 64-96-27.733333-96-64-96-64 42.666667-64 96z m0 0" /></svg>