<?xml version="1.0" standalone="no"?><!DOCTYPE svg PUBLIC "-//W3C//DTD SVG 1.1//EN" "http://www.w3.org/Graphics/SVG/1.1/DTD/svg11.dtd"><svg class="icon" width="128px" height="128.00px" viewBox="0 0 1024 1024" version="1.1" xmlns="http://www.w3.org/2000/svg"><path fill="#333333" d="M904.009143 332.580571a139.666286 139.666286 0 0 1-139.446857 139.446858c-77.129143 0-139.446857-62.281143-139.446857-139.446858s62.281143-139.446857 139.446857-139.446857a139.629714 139.629714 0 0 1 139.446857 139.446857zM464.018286 756.553143a142.153143 142.153143 0 0 0-142.848-142.848c-10.276571 0-20.553143 1.133714-30.866286 3.437714l59.428571 23.990857c58.294857 23.442286 86.857143 89.161143 63.414858 147.419429s-89.709714 86.857143-148.004572 62.866286c-23.442286-9.142857-46.848-18.870857-70.290286-28.013715a142.848 142.848 0 0 0 126.281143 75.995429 142.153143 142.153143 0 0 0 142.848-142.848zM938.276571 333.129143a174.628571 174.628571 0 0 0-174.299428-174.299429c-96.585143 0-174.848 78.299429-174.848 174.299429a174.372571 174.372571 0 0 0 174.848 174.299428 174.262857 174.262857 0 0 0 174.299428-174.299428z m85.723429 0a259.803429 259.803429 0 0 1-259.986286 259.986286l-249.709714 182.272c-9.142857 98.304-92.562286 175.433143-193.133714 175.433142-92.562286 0-170.861714-65.718857-189.696-153.161142L0.036571 745.106286v-245.138286l222.281143 89.709714a189.257143 189.257143 0 0 1 118.857143-26.294857l162.304-232.557714c1.133714-142.299429 117.723429-257.718857 260.571429-257.718857a260.169143 260.169143 0 0 1 259.986285 259.986285z"  /></svg>