<?xml version="1.0" standalone="no"?><!DOCTYPE svg PUBLIC "-//W3C//DTD SVG 1.1//EN" "http://www.w3.org/Graphics/SVG/1.1/DTD/svg11.dtd"><svg class="icon" width="128px" height="128.00px" viewBox="0 0 1024 1024" version="1.1" xmlns="http://www.w3.org/2000/svg"><path fill="#333333" d="M938 458.8l-29.6-312.6c-1.5-16.2-14.4-29-30.6-30.6L565.2 86h-0.4c-3.2 0-5.7 1-7.6 2.9L88.9 557.2c-3.9 3.9-3.9 10.2 0 14.1l363.8 363.8c1.9 1.9 4.4 2.9 7.1 2.9s5.2-1 7.1-2.9l468.3-468.3c2-2.1 3-5 2.8-8zM699 387c-35.3 0-64-28.7-64-64s28.7-64 64-64 64 28.7 64 64-28.7 64-64 64z" /></svg>