<?xml version="1.0" standalone="no"?><!DOCTYPE svg PUBLIC "-//W3C//DTD SVG 1.1//EN" "http://www.w3.org/Graphics/SVG/1.1/DTD/svg11.dtd"><svg class="icon" width="128px" height="113.78px" viewBox="0 0 1152 1024" version="1.1" xmlns="http://www.w3.org/2000/svg"><path fill="#333333" d="M1099.31 248.166c-12.562-47.3-49.574-84.552-96.568-97.194C917.562 128 576 128 576 128S234.44 128 149.258 150.972c-46.994 12.644-84.006 49.894-96.568 97.194-22.824 85.734-22.824 264.61-22.824 264.61s0 178.876 22.824 264.61c12.562 47.3 49.574 83 96.568 95.642C234.44 896 576 896 576 896s341.56 0 426.742-22.972c46.994-12.642 84.006-48.342 96.568-95.642 22.824-85.734 22.824-264.61 22.824-264.61s0-178.876-22.824-264.61z m-635.02 427.016V350.37l285.478 162.41-285.478 162.402z"  /></svg>